<mxfile host="app.diagrams.net" modified="2023-09-19T11:51:08.108Z" agent="Mozilla/5.0 (X11; Ubuntu; Linux x86_64; rv:109.0) Gecko/20100101 Firefox/117.0" etag="y1UN9XeGbwMlmGP2n7Lt" version="21.7.5" type="device">
  <diagram name="Page-1" id="zxYLDxom5zU_tBhAoKr1">
    <mxGraphModel dx="1434" dy="791" grid="1" gridSize="10" guides="1" tooltips="1" connect="1" arrows="1" fold="1" page="1" pageScale="1" pageWidth="1169" pageHeight="827" math="0" shadow="0">
      <root>
        <mxCell id="0" />
        <mxCell id="1" parent="0" />
        <mxCell id="kNW9RfZG_kaPXo736lm4-1" value="WebClient" style="shape=umlLifeline;perimeter=lifelinePerimeter;whiteSpace=wrap;html=1;container=0;dropTarget=0;collapsible=0;recursiveResize=0;outlineConnect=0;portConstraint=eastwest;newEdgeStyle={&quot;edgeStyle&quot;:&quot;elbowEdgeStyle&quot;,&quot;elbow&quot;:&quot;vertical&quot;,&quot;curved&quot;:0,&quot;rounded&quot;:0};" parent="1" vertex="1">
          <mxGeometry x="40" y="40" width="100" height="540" as="geometry" />
        </mxCell>
        <mxCell id="kNW9RfZG_kaPXo736lm4-2" value="" style="html=1;points=[];perimeter=orthogonalPerimeter;outlineConnect=0;targetShapes=umlLifeline;portConstraint=eastwest;newEdgeStyle={&quot;edgeStyle&quot;:&quot;elbowEdgeStyle&quot;,&quot;elbow&quot;:&quot;vertical&quot;,&quot;curved&quot;:0,&quot;rounded&quot;:0};" parent="kNW9RfZG_kaPXo736lm4-1" vertex="1">
          <mxGeometry x="45" y="70" width="10" height="170" as="geometry" />
        </mxCell>
        <mxCell id="kNW9RfZG_kaPXo736lm4-35" value="" style="html=1;points=[];perimeter=orthogonalPerimeter;outlineConnect=0;targetShapes=umlLifeline;portConstraint=eastwest;newEdgeStyle={&quot;edgeStyle&quot;:&quot;elbowEdgeStyle&quot;,&quot;elbow&quot;:&quot;vertical&quot;,&quot;curved&quot;:0,&quot;rounded&quot;:0};" parent="kNW9RfZG_kaPXo736lm4-1" vertex="1">
          <mxGeometry x="45" y="270" width="10" height="210" as="geometry" />
        </mxCell>
        <mxCell id="kNW9RfZG_kaPXo736lm4-4" value="&lt;div&gt;Application&amp;nbsp;&lt;/div&gt;&lt;div&gt;Server&lt;/div&gt;" style="shape=umlLifeline;perimeter=lifelinePerimeter;whiteSpace=wrap;html=1;container=0;dropTarget=0;collapsible=0;recursiveResize=0;outlineConnect=0;portConstraint=eastwest;newEdgeStyle={&quot;edgeStyle&quot;:&quot;elbowEdgeStyle&quot;,&quot;elbow&quot;:&quot;vertical&quot;,&quot;curved&quot;:0,&quot;rounded&quot;:0};" parent="1" vertex="1">
          <mxGeometry x="220" y="40" width="100" height="550" as="geometry" />
        </mxCell>
        <mxCell id="kNW9RfZG_kaPXo736lm4-5" value="" style="html=1;points=[];perimeter=orthogonalPerimeter;outlineConnect=0;targetShapes=umlLifeline;portConstraint=eastwest;newEdgeStyle={&quot;edgeStyle&quot;:&quot;elbowEdgeStyle&quot;,&quot;elbow&quot;:&quot;vertical&quot;,&quot;curved&quot;:0,&quot;rounded&quot;:0};" parent="kNW9RfZG_kaPXo736lm4-4" vertex="1">
          <mxGeometry x="45" y="80" width="10" height="150" as="geometry" />
        </mxCell>
        <mxCell id="kNW9RfZG_kaPXo736lm4-6" value="" style="html=1;points=[];perimeter=orthogonalPerimeter;outlineConnect=0;targetShapes=umlLifeline;portConstraint=eastwest;newEdgeStyle={&quot;edgeStyle&quot;:&quot;elbowEdgeStyle&quot;,&quot;elbow&quot;:&quot;vertical&quot;,&quot;curved&quot;:0,&quot;rounded&quot;:0};" parent="kNW9RfZG_kaPXo736lm4-4" vertex="1">
          <mxGeometry x="45" y="350" width="10" height="30" as="geometry" />
        </mxCell>
        <mxCell id="kNW9RfZG_kaPXo736lm4-7" value="" style="html=1;points=[];perimeter=orthogonalPerimeter;outlineConnect=0;targetShapes=umlLifeline;portConstraint=eastwest;newEdgeStyle={&quot;edgeStyle&quot;:&quot;elbowEdgeStyle&quot;,&quot;elbow&quot;:&quot;vertical&quot;,&quot;curved&quot;:0,&quot;rounded&quot;:0};" parent="kNW9RfZG_kaPXo736lm4-4" vertex="1">
          <mxGeometry x="45" y="460" width="10" height="20" as="geometry" />
        </mxCell>
        <mxCell id="kNW9RfZG_kaPXo736lm4-8" value="&lt;div&gt;Is CalDAV /&amp;nbsp;&lt;/div&gt;&lt;div&gt;CardDAV / WebDAV&lt;/div&gt;&lt;div&gt;PUSH supported?&lt;/div&gt;" style="html=1;verticalAlign=bottom;endArrow=block;edgeStyle=elbowEdgeStyle;elbow=vertical;curved=0;rounded=0;" parent="1" source="kNW9RfZG_kaPXo736lm4-2" target="kNW9RfZG_kaPXo736lm4-5" edge="1">
          <mxGeometry relative="1" as="geometry">
            <mxPoint x="195" y="130" as="sourcePoint" />
            <Array as="points">
              <mxPoint x="180" y="120" />
            </Array>
          </mxGeometry>
        </mxCell>
        <mxCell id="kNW9RfZG_kaPXo736lm4-9" value="" style="html=1;verticalAlign=bottom;endArrow=block;edgeStyle=elbowEdgeStyle;elbow=vertical;curved=0;rounded=0;" parent="1" edge="1">
          <mxGeometry relative="1" as="geometry">
            <mxPoint x="265" y="160" as="sourcePoint" />
            <Array as="points">
              <mxPoint x="190" y="160" />
            </Array>
            <mxPoint x="95" y="160" as="targetPoint" />
          </mxGeometry>
        </mxCell>
        <mxCell id="kNW9RfZG_kaPXo736lm4-10" value="content URL of push proxy" style="edgeLabel;html=1;align=center;verticalAlign=middle;resizable=0;points=[];" parent="kNW9RfZG_kaPXo736lm4-9" vertex="1" connectable="0">
          <mxGeometry x="0.1708" relative="1" as="geometry">
            <mxPoint x="14" y="-10" as="offset" />
          </mxGeometry>
        </mxCell>
        <mxCell id="kNW9RfZG_kaPXo736lm4-11" value="GET token for collection" style="html=1;verticalAlign=bottom;endArrow=open;endSize=8;edgeStyle=elbowEdgeStyle;elbow=vertical;curved=0;rounded=0;" parent="1" target="kNW9RfZG_kaPXo736lm4-5" edge="1">
          <mxGeometry x="0.0011" relative="1" as="geometry">
            <mxPoint x="395" y="220" as="targetPoint" />
            <Array as="points">
              <mxPoint x="180" y="220" />
            </Array>
            <mxPoint x="95" y="220" as="sourcePoint" />
            <mxPoint as="offset" />
          </mxGeometry>
        </mxCell>
        <mxCell id="kNW9RfZG_kaPXo736lm4-12" value="subscription hash" style="html=1;verticalAlign=bottom;endArrow=block;edgeStyle=elbowEdgeStyle;elbow=vertical;curved=0;rounded=0;" parent="1" source="kNW9RfZG_kaPXo736lm4-5" target="kNW9RfZG_kaPXo736lm4-2" edge="1">
          <mxGeometry relative="1" as="geometry">
            <mxPoint x="250" y="260" as="sourcePoint" />
            <Array as="points">
              <mxPoint x="190" y="260" />
            </Array>
            <mxPoint x="100" y="260" as="targetPoint" />
          </mxGeometry>
        </mxCell>
        <mxCell id="kNW9RfZG_kaPXo736lm4-13" value="Push Proxy" style="shape=umlLifeline;perimeter=lifelinePerimeter;whiteSpace=wrap;html=1;container=0;dropTarget=0;collapsible=0;recursiveResize=0;outlineConnect=0;portConstraint=eastwest;newEdgeStyle={&quot;edgeStyle&quot;:&quot;elbowEdgeStyle&quot;,&quot;elbow&quot;:&quot;vertical&quot;,&quot;curved&quot;:0,&quot;rounded&quot;:0};" parent="1" vertex="1">
          <mxGeometry x="350" y="40" width="100" height="560" as="geometry" />
        </mxCell>
        <mxCell id="kNW9RfZG_kaPXo736lm4-14" value="" style="html=1;points=[];perimeter=orthogonalPerimeter;outlineConnect=0;targetShapes=umlLifeline;portConstraint=eastwest;newEdgeStyle={&quot;edgeStyle&quot;:&quot;elbowEdgeStyle&quot;,&quot;elbow&quot;:&quot;vertical&quot;,&quot;curved&quot;:0,&quot;rounded&quot;:0};" parent="kNW9RfZG_kaPXo736lm4-13" vertex="1">
          <mxGeometry x="45" y="360" width="10" height="60" as="geometry" />
        </mxCell>
        <mxCell id="kNW9RfZG_kaPXo736lm4-34" value="" style="html=1;points=[];perimeter=orthogonalPerimeter;outlineConnect=0;targetShapes=umlLifeline;portConstraint=eastwest;newEdgeStyle={&quot;edgeStyle&quot;:&quot;elbowEdgeStyle&quot;,&quot;elbow&quot;:&quot;vertical&quot;,&quot;curved&quot;:0,&quot;rounded&quot;:0};" parent="kNW9RfZG_kaPXo736lm4-13" vertex="1">
          <mxGeometry x="45" y="270" width="10" height="50" as="geometry" />
        </mxCell>
        <mxCell id="kNW9RfZG_kaPXo736lm4-19" value="&lt;div&gt;open connection&amp;nbsp;&lt;/div&gt;&lt;div&gt;(auth header contains hash)&lt;/div&gt;" style="html=1;verticalAlign=bottom;endArrow=open;endSize=8;edgeStyle=elbowEdgeStyle;elbow=vertical;curved=0;rounded=0;" parent="1" target="kNW9RfZG_kaPXo736lm4-34" edge="1">
          <mxGeometry x="0.0011" relative="1" as="geometry">
            <mxPoint x="635" y="320" as="targetPoint" />
            <Array as="points">
              <mxPoint x="185" y="320" />
            </Array>
            <mxPoint x="95" y="320" as="sourcePoint" />
            <mxPoint as="offset" />
          </mxGeometry>
        </mxCell>
        <mxCell id="kNW9RfZG_kaPXo736lm4-24" value="" style="endArrow=classic;html=1;rounded=0;startArrow=oval;startFill=1;" parent="1" edge="1">
          <mxGeometry width="50" height="50" relative="1" as="geometry">
            <mxPoint x="210" y="400" as="sourcePoint" />
            <mxPoint x="265" y="400" as="targetPoint" />
          </mxGeometry>
        </mxCell>
        <mxCell id="kNW9RfZG_kaPXo736lm4-25" value="&lt;div&gt;Collection&amp;nbsp;&lt;/div&gt;&lt;div&gt;updated&lt;/div&gt;" style="edgeLabel;html=1;align=center;verticalAlign=middle;resizable=0;points=[];" parent="kNW9RfZG_kaPXo736lm4-24" vertex="1" connectable="0">
          <mxGeometry x="-0.5122" y="-1" relative="1" as="geometry">
            <mxPoint x="-13" y="-21" as="offset" />
          </mxGeometry>
        </mxCell>
        <mxCell id="kNW9RfZG_kaPXo736lm4-26" value="POST updated" style="html=1;verticalAlign=bottom;endArrow=block;edgeStyle=elbowEdgeStyle;elbow=vertical;curved=0;rounded=0;" parent="1" source="kNW9RfZG_kaPXo736lm4-6" target="kNW9RfZG_kaPXo736lm4-14" edge="1">
          <mxGeometry relative="1" as="geometry">
            <mxPoint x="270" y="410" as="sourcePoint" />
            <Array as="points">
              <mxPoint x="355" y="410" />
            </Array>
            <mxPoint x="360" y="410" as="targetPoint" />
          </mxGeometry>
        </mxCell>
        <mxCell id="kNW9RfZG_kaPXo736lm4-28" value="connection open" style="html=1;verticalAlign=bottom;endArrow=none;endSize=8;edgeStyle=elbowEdgeStyle;elbow=vertical;curved=0;rounded=0;endFill=0;startArrow=classic;startFill=1;" parent="1" target="kNW9RfZG_kaPXo736lm4-34" edge="1">
          <mxGeometry x="0.0011" relative="1" as="geometry">
            <mxPoint x="635" y="350" as="targetPoint" />
            <Array as="points">
              <mxPoint x="180" y="350" />
            </Array>
            <mxPoint x="95" y="350" as="sourcePoint" />
            <mxPoint as="offset" />
          </mxGeometry>
        </mxCell>
        <mxCell id="kNW9RfZG_kaPXo736lm4-33" value="Sync" style="html=1;verticalAlign=bottom;endArrow=classic;endSize=8;edgeStyle=elbowEdgeStyle;elbow=vertical;curved=0;rounded=0;startArrow=classic;startFill=1;strokeWidth=3;dashed=1;dashPattern=1 2;endFill=1;" parent="1" source="kNW9RfZG_kaPXo736lm4-35" target="kNW9RfZG_kaPXo736lm4-7" edge="1">
          <mxGeometry x="0.0011" relative="1" as="geometry">
            <mxPoint x="270" y="510" as="targetPoint" />
            <Array as="points">
              <mxPoint x="185" y="510" />
            </Array>
            <mxPoint x="95" y="510" as="sourcePoint" />
            <mxPoint as="offset" />
          </mxGeometry>
        </mxCell>
        <mxCell id="kNW9RfZG_kaPXo736lm4-37" value="update messeage" style="html=1;verticalAlign=bottom;endArrow=none;endSize=8;edgeStyle=elbowEdgeStyle;elbow=vertical;curved=0;rounded=0;startArrow=classic;startFill=1;strokeWidth=3;dashed=1;dashPattern=1 2;endFill=0;" parent="1" source="kNW9RfZG_kaPXo736lm4-35" target="kNW9RfZG_kaPXo736lm4-14" edge="1">
          <mxGeometry x="0.0011" relative="1" as="geometry">
            <mxPoint x="390" y="450" as="targetPoint" />
            <Array as="points">
              <mxPoint x="310" y="450" />
            </Array>
            <mxPoint x="220" y="450" as="sourcePoint" />
            <mxPoint as="offset" />
          </mxGeometry>
        </mxCell>
      </root>
    </mxGraphModel>
  </diagram>
</mxfile>
